# xmcd
#
# Track frame offsets: 
#        150
#        25347
#        38718
#        49196
#        63350
#        84413
#        114587
#        132270
#        147483
#        162957
#        175983
#        188038
#        201257
#        215707
#        227966
#        246619
#        262124
#        283524
#
# Disc length: 4028 seconds
#
# Revision: 0
# Processed by: cddbd v1.5.2PL0 Copyright (c) Steve Scherf et al.
# Submitted via: ExactAudioCopy v0.95b3
#
DISCID=180fba12
DTITLE=Dr. John - Introducing...
DYEAR=2006
DGENRE=Blues
TTITLE0=Gris Gris Gumbo Yaya
TTITLE1=Mama Roux
TTITLE2=Jump Sturdy
TTITLE3=Barefoot Lady
TTITLE4=Loop Garoo
TTITLE5=Craney Crow
TTITLE6=Iko Iko
TTITLE7=Big Chief
TTITLE8=Stack-A-Lee
TTITLE9=Right Place Wrong Time
TTITLE10=Same Old Same Old
TTITLE11=Such A Night
TTITLE12=Quitters Never Win
TTITLE13=Mos' Scocious
TTITLE14=Makin' Whoopee!
TTITLE15=I'll Be Glad When You're Dead. You Rascal You
TTITLE16=Litanie Des Saints
TTITLE17=Goin' Back To New Orleans
EXTD=
EXTT0=
EXTT1=
EXTT2=
EXTT3=
EXTT4=
EXTT5=
EXTT6=
EXTT7=
EXTT8=
EXTT9=
EXTT10=
EXTT11=
EXTT12=
EXTT13=
EXTT14=
EXTT15=
EXTT16=
EXTT17=
PLAYORDER=
